<svg preserveAspectRatio="none" width="100%" height="100%" overflow="visible" style="display: block;" viewBox="0 0 20 20" fill="none" xmlns="http://www.w3.org/2000/svg">
<g id="SVG">
<path id="Vector" d="M1 6H9" stroke="var(--stroke-0, white)" stroke-width="2"/>
<path id="Vector_2" d="M15 9C16.6569 9 18 7.65685 18 6C18 4.34315 16.6569 3 15 3C13.3431 3 12 4.34315 12 6C12 7.65685 13.3431 9 15 9Z" stroke="var(--stroke-0, white)" stroke-width="2" stroke-linecap="round"/>
<path id="Vector_3" d="M19 14H11" stroke="var(--stroke-0, white)" stroke-width="2"/>
<path id="Vector_4" d="M2 14C2 12.3431 3.34315 11 5 11C6.65685 11 8 12.3431 8 14C8 15.6569 6.65685 17 5 17C3.34315 17 2 15.6569 2 14Z" stroke="var(--stroke-0, white)" stroke-width="2" stroke-linecap="round"/>
</g>
</svg>
