<svg preserveAspectRatio="none" width="100%" height="100%" overflow="visible" style="display: block;" viewBox="0 0 34 7" fill="none" xmlns="http://www.w3.org/2000/svg">
<g id="dots">
<path id="Vector" d="M3.5 7C5.433 7 7 5.433 7 3.5C7 1.567 5.433 0 3.5 0C1.567 0 0 1.567 0 3.5C0 5.433 1.567 7 3.5 7Z" fill="var(--fill-0, #808080)"/>
<path id="Vector_2" d="M17 7C18.933 7 20.5 5.433 20.5 3.5C20.5 1.567 18.933 0 17 0C15.067 0 13.5 1.567 13.5 3.5C13.5 5.433 15.067 7 17 7Z" fill="var(--fill-0, #808080)"/>
<path id="Vector_3" d="M30.5 7C32.433 7 34 5.433 34 3.5C34 1.567 32.433 0 30.5 0C28.567 0 27 1.567 27 3.5C27 5.433 28.567 7 30.5 7Z" fill="var(--fill-0, #808080)"/>
</g>
</svg>
